PathFileType	3	(X/Y/Z)	C:\Users\jcho911\Documents\Smart Splint MAP workflow\data\P09\mocap\P09EMGstatic01.trc
DataRate	CameraRate	NumFrames	NumMarkers	Units	OrigDataRate	OrigDataStartFrame	OrigNumFrames
200.0	200.0	9	37	mm	200.0	498	995	
Frame#	Time	LAS1			RAS1			LPS1			RPS1			RTH1			RTH2			RTH3			RLFC			RMFC			LTH1			LTH2			LTH3			LLFC			LMFC			LTB1			LTB2			LTB3			LLMAL			LMMAL			LToe			LMT1			LCAL			LMT5			RToe			RMT5			RMT1			RCAL			RTB1			RTB2			RTB3			RMMAL			RLMAL			T10			RACR1			CLAV			C7			LACR1			
		X1	Y1	Z1	X2	Y2	Z2	X3	Y3	Z3	X4	Y4	Z4	X5	Y5	Z5	X6	Y6	Z6	X7	Y7	Z7	X8	Y8	Z8	X9	Y9	Z9	X10	Y10	Z10	X11	Y11	Z11	X12	Y12	Z12	X13	Y13	Z13	X14	Y14	Z14	X15	Y15	Z15	X16	Y16	Z16	X17	Y17	Z17	X18	Y18	Z18	X19	Y19	Z19	X20	Y20	Z20	X21	Y21	Z21	X22	Y22	Z22	X23	Y23	Z23	X24	Y24	Z24	X25	Y25	Z25	X26	Y26	Z26	X27	Y27	Z27	X28	Y28	Z28	X29	Y29	Z29	X30	Y30	Z30	X31	Y31	Z31	X32	Y32	Z32	X33	Y33	Z33	X34	Y34	Z34	X35	Y35	Z35	X36	Y36	Z36	X37	Y37	Z37	
498	2.48	326.491	1041.2683	-811.93146	592.74927	1032.1469	-813.90625	416.03342	1094.4093	-628.70007	511.54388	1093.3854	-626.3692	671.33246	781.73407	-721.78931	634.0965	681.21686	-794.64038	654.89423	611.23541	-688.35352	648.55902	525.27399	-695.07227	537.65015	511.22421	-721.46802	268.81171	685.75159	-736.41156	291.94247	760.58527	-818.23529	330.9447	626.16272	-790.53925	294.96414	527.14099	-715.09552	396.33652	517.71283	-744.01862	270.44312	318.04544	-684.13873	271.13516	402.96973	-647.45056	294.91486	223.97777	-619.21661	286.66467	89.727936	-640.93689	372.23828	90.40419	-681.66113	258.35342	29.78018	-851.13043	322.75143	24.290966	-818.04462	337.34418	40.725361	-588.6062	218.66399	27.599411	-768.77063	667.17853	33.434063	-841.37323	715.98376	29.787437	-768.9967	606.93304	25.236938	-809.47516	623.28656	48.399979	-579.61719	680.0675	326.89642	-623.73645	639.35699	403.3085	-718.99225	673.66589	206.01974	-659.33661	575.4967	94.62941	-660.36871	671.05414	84.29126	-635.04504	459.21054	1334.9655	-607.70837	685.90588	1523.8458	-710.28094	453.71051	1470.061	-817.55701	470.66605	1588.65	-653.92041	233.87987	1533.4314	-729.9538
499	2.485	326.49323	1041.2748	-811.92566	592.71674	1032.1537	-813.89801	415.99759	1094.3704	-628.66846	511.54446	1093.386	-626.36877	671.31805	781.72809	-721.71307	634.09058	681.21692	-794.63367	654.96698	611.27753	-688.33795	648.51544	525.26306	-695.06836	537.65314	511.21866	-721.48578	268.77588	685.75989	-736.3681	291.91806	760.57092	-818.20599	330.94406	626.16217	-790.54303	294.96194	527.12286	-715.09485	395.99258	517.82056	-743.82971	270.45776	318.02808	-684.08514	271.14862	402.9534	-647.44409	294.90768	223.96375	-619.2243	286.66623	89.699448	-640.94177	372.23294	90.403442	-681.66919	258.36823	29.779076	-851.11523	322.77139	24.329321	-818.02148	337.34604	40.711483	-588.60187	218.65825	27.569311	-768.79712	667.18384	33.412155	-841.35541	715.97601	29.771841	-769.00433	606.92999	25.237667	-809.47748	623.28668	48.387936	-579.6333	679.76355	326.86646	-623.69379	638.93378	403.04648	-718.45978	673.65057	206.03061	-659.35132	575.47717	94.573021	-660.40619	671.01941	84.228752	-635.04193	459.18759	1334.9357	-607.64606	685.84375	1523.8251	-710.28192	453.70667	1470.085	-817.53058	470.63541	1588.6512	-653.88208	233.86061	1533.4539	-729.91364
500	2.49	326.42557	1041.2509	-811.86395	592.69861	1032.1208	-813.87616	415.97946	1094.3384	-628.63873	511.51968	1093.337	-626.3078	671.31525	781.73889	-721.70947	633.99182	681.19928	-794.53302	654.9566	611.27869	-688.39099	648.48065	525.24561	-695.04663	537.59052	511.21896	-721.48749	268.77686	685.76019	-736.36798	291.89066	760.57343	-818.21558	330.90204	626.15765	-790.5047	294.92587	527.12634	-715.07367	396.08145	517.76227	-743.90222	270.28894	318.02158	-684.05664	271.10794	402.97101	-647.42383	294.88892	223.97195	-619.1781	286.63953	89.693962	-640.94165	372.23462	90.407318	-681.66266	258.32782	29.748072	-851.11713	322.70834	24.24963	-818.0329	337.35461	40.689041	-588.57928	218.62299	27.548717	-768.77594	667.18164	33.443459	-841.35645	715.96271	29.770649	-769.01929	606.85931	25.222584	-809.46344	623.25372	48.353558	-579.62091	680.04205	326.86368	-623.77386	638.8927	403.03207	-718.45886	673.63599	206.00911	-659.37323	575.44836	94.593559	-660.45593	671.04547	84.270233	-635.04303	459.1875	1334.9349	-607.64697	685.88239	1523.8003	-710.31854	453.67825	1470.0502	-817.48694	470.63989	1588.6882	-653.84869	233.86488	1533.425	-729.84576
501	2.495	326.42273	1041.2262	-811.86835	592.66992	1032.0977	-813.86371	416.00992	1094.359	-628.60114	511.55173	1093.3472	-626.23724	671.32257	781.7074	-721.7016	634.04071	681.19745	-794.62061	654.95819	611.24817	-688.34772	648.48315	525.31195	-694.9635	537.55652	511.21747	-721.4314	268.74561	685.74384	-736.35211	291.88614	760.58466	-818.17114	330.88586	626.14868	-790.49554	294.92029	527.1004	-715.03143	396.18234	517.74957	-743.97412	270.27307	318.03177	-684.05847	271.06888	402.95959	-647.39642	294.92133	223.95493	-619.16016	286.64249	89.674919	-640.95654	372.23459	90.384262	-681.68127	258.32578	29.743729	-851.1181	322.71896	24.243088	-818.04645	337.37189	40.672535	-588.54358	218.63513	27.569216	-768.77142	667.16077	33.415779	-841.35126	715.96887	29.758591	-769.0083	606.90442	25.208832	-809.42877	623.27246	48.345501	-579.61627	680.06476	326.94781	-623.67352	639.28998	403.30298	-719.00604	673.67682	206.02168	-659.42627	575.46613	94.606155	-660.39203	671.05414	84.358261	-634.93719	459.18765	1334.9363	-607.64508	685.82544	1523.7838	-710.32172	453.69376	1470.0408	-817.47565	470.6702	1588.6881	-653.81665	233.83803	1533.4165	-729.81409
502	2.5	326.41019	1041.2327	-811.78961	592.69556	1032.1245	-813.88977	415.97482	1094.3413	-628.57703	511.52783	1093.353	-626.25562	671.31555	781.67175	-721.76672	634.01678	681.20959	-794.55341	654.96625	611.27454	-688.34106	648.51495	525.31873	-694.96014	537.55225	511.19595	-721.43225	268.74442	685.72375	-736.34595	291.90228	760.56146	-818.146	330.8577	626.14655	-790.49042	294.89029	527.10529	-715.03278	396.06943	517.76434	-743.8952	270.3988	318.00012	-684.08435	271.0788	402.94113	-647.38843	294.88892	223.95073	-619.18988	286.64301	89.692764	-640.9436	372.24701	90.409775	-681.66266	258.34448	29.770407	-851.13306	322.75327	24.268494	-818.04431	337.37802	40.673908	-588.54913	218.63708	27.571218	-768.77411	667.17493	33.420124	-841.37372	715.95697	29.767826	-768.9845	606.90625	25.200806	-809.40387	623.2677	48.325703	-579.62622	679.76343	326.92746	-623.59601	638.83337	403.05527	-718.43799	673.63776	206.01909	-659.3728	575.44391	94.582809	-660.34082	671.04767	84.372398	-634.93475	459.22226	1334.9432	-607.57831	685.86719	1523.7673	-710.28973	453.66473	1470.058	-817.4295	470.69354	1588.6824	-653.77838	233.82547	1533.4337	-729.74512
503	2.505	326.44058	1041.2025	-811.7735	592.58386	1032.0756	-813.80841	415.97491	1094.3446	-628.53845	511.57922	1093.3416	-626.30084	671.30011	781.66888	-721.76782	634.06458	681.23969	-794.58527	654.95398	611.27386	-688.33954	648.48749	525.27863	-695.02313	537.50494	511.24005	-721.39288	268.70911	685.7323	-736.30353	291.90118	760.55811	-818.12781	330.87531	626.16638	-790.46893	294.89059	527.10516	-715.03333	396.05936	517.75781	-743.8783	270.28162	317.98743	-684.05042	271.11423	402.92801	-647.41986	294.86557	223.96231	-619.1734	286.6716	89.693611	-640.96088	372.25934	90.411346	-681.68549	258.35141	29.761162	-851.13196	322.82391	24.340565	-818.04419	337.3848	40.689976	-588.55536	218.62578	27.572922	-768.77289	667.18549	33.406567	-841.35474	715.95905	29.785982	-769.03021	606.87537	25.23406	-809.41138	623.28949	48.331257	-579.6037	679.78674	326.85492	-623.68945	639.19965	403.30206	-718.9339	673.64209	205.99046	-659.37323	575.43799	94.596458	-660.30408	671.03717	84.357941	-634.94617	459.22186	1334.9427	-607.5788	685.85657	1523.7419	-710.29803	453.6611	1470.0359	-817.40948	470.70267	1588.6938	-653.75385	233.84102	1533.434	-729.72583
504	2.51	326.43365	1041.2256	-811.76367	592.638	1032.0925	-813.80914	415.97595	1094.3447	-628.53943	511.54477	1093.3453	-626.29437	671.30231	781.72424	-721.66931	634.03192	681.22534	-794.55853	654.9516	611.26141	-688.33844	648.47693	525.27271	-695.02399	537.51318	511.21735	-721.40778	268.7168	685.71289	-736.29755	291.87222	760.58496	-818.1178	330.88449	626.17078	-790.45685	294.85352	527.10846	-715.0094	395.91513	517.78571	-743.83075	270.38068	317.995	-684.07214	271.07813	402.95688	-647.43243	294.8645	223.96127	-619.17102	286.6427	89.693062	-640.98315	372.26376	90.384926	-681.6792	258.35828	29.743587	-851.16168	322.8269	24.345644	-818.0434	337.37259	40.679352	-588.60101	218.60814	27.577377	-768.76685	667.1839	33.409054	-841.35138	715.97076	29.801966	-769.00006	606.89063	25.222858	-809.40247	623.29596	48.335461	-579.64899	680.01996	326.86792	-623.70654	638.79907	403.01215	-718.43219	673.60718	205.94661	-659.39734	575.43817	94.593842	-660.36108	671.06439	84.279877	-635.00598	459.22272	1334.9436	-607.57825	685.86829	1523.7061	-710.32477	453.65689	1470.0574	-817.37677	470.73511	1588.6819	-653.76135	233.86076	1533.4993	-729.65784
505	2.515	326.38937	1041.2531	-811.67877	592.55841	1032.0927	-813.74915	415.94299	1094.3475	-628.53656	511.51425	1093.3234	-626.22748	671.2583	781.70715	-721.71185	634.02441	681.22931	-794.54541	654.9621	611.27197	-688.33496	648.45911	525.27252	-695.01697	537.50476	511.18445	-721.37799	268.71133	685.73352	-736.29346	291.86353	760.58636	-818.09827	330.8905	626.19305	-790.46442	294.8927	527.12732	-715.03448	395.94693	517.80127	-743.83698	270.30811	318.0365	-684.07343	271.08588	402.94522	-647.36932	294.85898	223.95844	-619.20221	286.6647	89.684647	-640.96045	372.24664	90.388412	-681.66821	258.33234	29.738775	-851.17035	322.83664	24.342178	-818.04126	337.37421	40.674324	-588.63739	218.63824	27.569256	-768.77765	667.17999	33.401321	-841.39117	715.97644	29.773634	-769.02454	606.88568	25.2663	-809.45306	623.32751	48.35392	-579.62299	680.05939	326.89035	-623.67828	638.83331	403.04581	-718.46478	673.63043	205.95052	-659.37	575.44983	94.604622	-660.32513	671.05328	84.288902	-635.03497	459.26181	1334.9545	-607.51178	685.87402	1523.7167	-710.30316	453.64731	1470.0498	-817.33655	470.74072	1588.657	-653.72028	233.91008	1533.4758	-729.63312
506	2.52	326.35684	1041.2682	-811.68982	592.50879	1032.0802	-813.69757	415.94617	1094.3514	-628.4353	511.51926	1093.34	-626.09161	671.25104	781.75226	-721.63055	634.03796	681.21387	-794.54419	654.9212	611.27863	-688.31384	648.47394	525.3313	-694.88684	537.51398	511.20682	-721.37085	268.71014	685.71564	-736.28748	291.89581	760.57538	-818.11096	330.83679	626.20612	-790.3941	294.88043	527.12109	-715.03937	395.90433	517.7981	-743.80591	270.36203	318.01056	-684.06873	271.10669	402.95203	-647.3714	294.89496	223.96802	-619.18268	286.67337	89.680672	-640.95166	372.21246	90.385078	-681.66895	258.34991	29.792072	-851.13208	322.83633	24.37698	-818.06567	337.34979	40.726173	-588.60931	218.65514	27.595242	-768.79865	667.185	33.437862	-841.38794	716.00372	29.818762	-769.00018	606.92902	25.255705	-809.45764	623.31329	48.327206	-579.64459	679.93579	326.85147	-623.69836	639.25409	403.29044	-718.96448	673.69116	206.01086	-659.38843	575.47125	94.602051	-660.33069	671.04456	84.28273	-634.99701	459.20184	1334.96	-607.44214	685.88007	1523.7161	-710.32318	453.6398	1470.0465	-817.2937	470.7796	1588.704	-653.66016	233.90594	1533.5018	-729.59369
